<?xml version="1.0" encoding="utf-8"?>
<!-- Generator: Adobe Illustrator 27.5.0, SVG Export Plug-In . SVG Version: 6.00 Build 0)  -->
<svg version="1.1" xmlns="http://www.w3.org/2000/svg" xmlns:xlink="http://www.w3.org/1999/xlink" x="0px" y="0px"
	 viewBox="0 0 750 500" style="enable-background:new 0 0 750 500;" xml:space="preserve">
<g id="BACKGROUND">
	<rect style="fill:#E1F1FF;" width="750" height="500"/>
</g>
<g id="OBJECTS">
	<g>
		<defs>
			<rect id="SVGID_1_" width="750" height="500"/>
		</defs>
		<clipPath id="SVGID_00000181791114388792367110000000745870074820059566_">
			<use xlink:href="#SVGID_1_"  style="overflow:visible;"/>
		</clipPath>
		<g style="opacity:0.5;clip-path:url(#SVGID_00000181791114388792367110000000745870074820059566_);">
			<path style="fill:#E1F1FF;" d="M731.763,38.108c-16.793-11.463-40.698-13.115-57.291-1.366
				c-16.594,11.749-22.503,37.43-10.366,53.743c-14.355-10.803-37.572-6.608-47.238,8.535c-10.138-6.982-24.261-7.657-35.019-1.675
				c-10.758,5.982-17.636,18.337-17.053,30.632c-7.667-14.368-26.307-21.797-41.755-16.641
				c-15.448,5.156-25.888,22.292-23.387,38.385c-28.862-6.16-60.903,11.76-70.764,39.576c-9.861,27.816,3.741,61.915,30.038,75.309
				c-18.873,21.078-16.031,57.799,5.859,75.723c21.891,17.924,58.451,13.463,75.39-9.199c-6.585,16.337-0.237,36.065,12.668,48.054
				c12.904,11.989,31.147,16.979,48.761,16.824c37.51-0.33,73.836-23.966,89.333-58.126c-4.954,10.922,1.184,24.548,11.308,30.978
				c10.124,6.429,22.991,6.931,34.821,4.96c33.51-5.585,63.031-30.691,73.924-62.87c10.893-32.179,2.692-70.054-20.536-94.845
				c24.518-25.984,30.08-68.002,13.168-99.471c-4.977-9.261-12.409-17.648-21.492-23.045c-6.484-3.853-14.905-4.905-19.962-10.863
				c-5.097-6.004-6.532-15.288-10.334-22.124C746.907,51.738,740.168,43.845,731.763,38.108z"/>
			<path style="fill:#E1F1FF;" d="M-58.77,41.505c16.774-1.709,33.943,9.859,38.66,26.047c1.226-5.465,7.69-9.093,12.994-7.293
				s8.224,8.614,5.87,13.696C11.24,60.387,32.828,56.206,49.477,64.13c16.649,7.924,27.018,27.315,24.363,45.561
				c8.505-8.859,24.526-8.771,32.933,0.182c20.391-4.96,42.868-0.538,59.861,11.775c16.993,12.313,28.195,32.295,29.833,53.216
				c16.332-10.794,37.872-13.264,56.223-6.447c18.351,6.817,33.055,22.752,38.378,41.59c12.923-11.523,33.899-10.671,48.193-0.9
				c14.294,9.771,22.475,26.631,25.48,43.682s1.438,34.538-0.138,51.78c-1.039,11.373-2.146,23.005-6.951,33.365
				s-14.112,19.379-25.467,20.604c-11.462,20.733-39.113,25.159-62.801,24.798c-74.219-1.13-147.865-26.695-206.82-71.794
				c-34.91,17.098-76.799,19.351-113.341,6.096c-36.542-13.255-67.246-41.839-83.076-77.342c-2.39,4.055-8.883,3.658-12.251,0.37
				c-3.368-3.288-4.379-8.245-5.049-12.904c-5.246-36.499,0.715-74.531,16.876-107.674c9.175-18.817,21.321-33.259,37.393-46.405
				c6.239-5.103,8.538-12.163,13.469-18.306C-77.37,47.849-68.451,42.491-58.77,41.505z"/>
		</g>
		<g style="clip-path:url(#SVGID_00000181791114388792367110000000745870074820059566_);">
			<g>
				<polygon style="fill:#CBE3F8;" points="333.87,77.134 333.87,66.084 315.929,48.143 309.308,48.143 309.308,77.134 
					302.866,77.134 302.866,63.846 252.332,63.846 252.332,77.134 244.498,77.134 244.498,45.827 241.025,45.827 241.025,77.134 
					223.965,77.134 223.965,83.174 225.991,83.174 225.991,476.522 342.133,476.522 342.133,83.174 344.159,83.174 344.159,77.134 
									"/>
				<rect x="59.222" y="146.492" style="fill:#CBE3F8;" width="141.726" height="330.03"/>
				<polygon style="fill:#CBE3F8;" points="736.264,476.522 638.072,476.522 638.072,133.735 736.264,196.156 				"/>
				<polygon style="fill:#CBE3F8;" points="555.643,165.799 546.897,165.799 546.897,158.873 511.112,158.873 511.112,165.799 
					501.589,165.799 501.589,158.873 488.775,158.873 488.775,165.799 484.878,165.799 484.878,158.652 472.065,158.652 
					472.065,165.799 463.94,165.799 463.94,177.194 466.856,177.194 466.856,476.522 552.727,476.522 552.727,177.194 
					555.643,177.194 				"/>
			</g>
			<g>
				<rect x="610.453" y="229.97" style="fill:#A1C5EB;" width="85.872" height="244.858"/>
				<polygon style="fill:#A1C5EB;" points="154.664,476.744 45.697,476.744 45.697,259.7 154.664,189.3 				"/>
				<g>
					<polygon style="fill:#A1C5EB;" points="287.601,127.046 267.213,127.046 267.213,118.105 250.499,118.105 250.499,127.046 
						233.297,127.046 220.889,114.638 195.048,114.638 195.048,127.046 178.392,127.046 178.392,134.984 181.185,134.984 
						181.185,476.744 284.809,476.744 284.809,134.984 287.601,134.984 					"/>
					<path style="fill:#CBE3F8;" d="M200.66,168.084h-4.096V153.25h4.096V168.084z M215.273,153.25h-4.096v14.834h4.096V153.25z
						 M229.885,153.25h-4.096v14.834h4.096V153.25z M244.498,153.25h-4.096v14.834h4.096V153.25z M273.723,153.25h-4.096v14.834
						h4.096V153.25z M215.273,174.466h-4.096V189.3h4.096V174.466z M259.111,174.466h-4.096V189.3h4.096V174.466z M273.723,174.466
						h-4.096V189.3h4.096V174.466z M200.66,195.681h-4.096v14.834h4.096V195.681z M215.273,195.681h-4.096v14.834h4.096V195.681z
						 M244.498,195.681h-4.096v14.834h4.096V195.681z M259.111,195.681h-4.096v14.834h4.096V195.681z M215.273,216.897h-4.096
						v14.834h4.096V216.897z M229.885,216.897h-4.096v14.834h4.096V216.897z M244.498,216.897h-4.096v14.834h4.096V216.897z
						 M273.723,216.897h-4.096v14.834h4.096V216.897z M200.66,238.113h-4.096v14.834h4.096V238.113z M215.273,238.113h-4.096v14.834
						h4.096V238.113z M229.885,238.113h-4.096v14.834h4.096V238.113z M259.111,238.113h-4.096v14.834h4.096V238.113z
						 M273.723,238.113h-4.096v14.834h4.096V238.113z"/>
				</g>
				<g>
					<polygon style="fill:#A1C5EB;" points="452.872,145.079 451.575,145.079 446.904,137.6 446.904,129.7 442.086,129.7 
						442.086,117.583 434.403,117.583 426.894,105.559 422.789,105.559 422.789,97.916 419.503,97.916 419.503,88.782 
						415.775,88.782 415.775,97.916 412.489,97.916 412.489,105.559 408.384,105.559 400.875,117.583 393.191,117.583 
						393.191,129.7 388.374,129.7 388.374,137.6 383.702,145.079 382.405,145.079 382.405,149.18 383.44,149.18 383.44,476.744 
						451.838,476.744 451.838,149.18 452.872,149.18 					"/>
					<path style="fill:#CBE3F8;" d="M436.195,168.668h-5.738v-5.738h5.738V168.668z M436.195,176.067h-5.738v5.738h5.738V176.067z
						 M436.195,193.13h-5.738v5.738h5.738V193.13z M423.377,162.931h-5.738v5.738h5.738V162.931z M423.377,176.067h-5.738v5.738
						h5.738V176.067z M410.558,162.931h-5.738v5.738h5.738V162.931z"/>
				</g>
			</g>
			<g>
				<rect x="207.589" y="289.599" style="fill:#619AC9;" width="72.597" height="187.146"/>
				<g>
					<g>
						<rect x="-1.854" y="297.081" style="fill:#619AC9;" width="163.991" height="179.663"/>
						<path style="fill:#619AC9;" d="M148.186,272.521h-1.263h-12.263h-1.263h-12.263h-1.263H107.61h-1.263H94.085h-1.263H80.56
							h-1.263H67.035h-1.263H53.509h-1.263H39.984h-1.263H26.459h-1.263H12.933H11.67H-1.854v25.194H11.67h1.263h12.263h1.263
							h12.262h1.263h12.262h1.263h12.262h1.263h12.263h1.263h12.263h1.263h12.263h1.263h12.262h1.263h12.263h1.263h12.263h1.263
							h13.525v-25.194H148.186z M11.67,296.448H-0.591v-22.659H11.67V296.448z M25.196,296.448H12.933v-22.659h12.263V296.448z
							 M38.721,296.448H26.459v-22.659h12.262V296.448z M52.246,296.448H39.984v-22.659h12.262V296.448z M65.772,296.448H53.509
							v-22.659h12.262V296.448z M79.297,296.448H67.035v-22.659h12.263V296.448z M92.822,296.448H80.56v-22.659h12.263V296.448z
							 M106.348,296.448H94.085v-22.659h12.263V296.448z M119.872,296.448H107.61v-22.659h12.262V296.448z M133.398,296.448h-12.263
							v-22.659h12.263V296.448z M146.923,296.448h-12.263v-22.659h12.263V296.448z M160.448,296.448h-12.262v-22.659h12.262V296.448
							z"/>
					</g>
					<path style="fill:#E1F1FF;" d="M9.212,335.218H-5.686v-14.898H9.212V335.218z M32.163,320.319H17.265v14.898h14.898V320.319z
						 M55.114,320.319H40.215v14.898h14.898V320.319z M9.212,344.076H-5.686v14.898H9.212V344.076z M32.163,344.076H17.265v14.898
						h14.898V344.076z M55.114,344.076H40.215v14.898h14.898V344.076z M9.212,367.833H-5.686v14.898H9.212V367.833z M32.163,367.833
						H17.265v14.898h14.898V367.833z M55.114,367.833H40.215v14.898h14.898V367.833z"/>
				</g>
				<g>
					<polygon style="fill:#619AC9;" points="537.243,226.211 499.77,226.211 499.77,203.549 494.256,203.549 494.256,226.211 
						488.949,226.211 488.949,219.182 454.745,219.182 454.745,226.211 442.68,226.211 442.68,235.805 446.303,235.805 
						446.303,476.744 533.62,476.744 533.62,235.805 537.243,235.805 					"/>
					<path style="fill:#CBE3F8;" d="M477.005,254.585h-20.867v-3.473h20.867V254.585z M477.005,258.209h-20.867v3.473h20.867
						V258.209z M500.395,251.113h-20.867v3.473h20.867V251.113z M500.395,258.209h-20.867v3.473h20.867V258.209z M523.785,251.113
						h-20.867v3.473h20.867V251.113z M523.785,258.209h-20.867v3.473h20.867V258.209z M477.005,266.967h-20.867v3.473h20.867
						V266.967z M477.005,274.064h-20.867v3.473h20.867V274.064z M500.395,266.967h-20.867v3.473h20.867V266.967z M500.395,274.064
						h-20.867v3.473h20.867V274.064z M523.785,266.967h-20.867v3.473h20.867V266.967z M523.785,274.064h-20.867v3.473h20.867
						V274.064z M477.005,282.822h-20.867v3.473h20.867V282.822z M477.005,289.919h-20.867v3.473h20.867V289.919z M500.395,282.822
						h-20.867v3.473h20.867V282.822z M500.395,289.919h-20.867v3.473h20.867V289.919z M523.785,282.822h-20.867v3.473h20.867
						V282.822z M523.785,289.919h-20.867v3.473h20.867V289.919z M477.005,298.677h-20.867v3.473h20.867V298.677z M477.005,305.773
						h-20.867v3.473h20.867V305.773z M500.395,298.677h-20.867v3.473h20.867V298.677z M500.395,305.773h-20.867v3.473h20.867
						V305.773z M523.785,298.677h-20.867v3.473h20.867V298.677z M523.785,305.773h-20.867v3.473h20.867V305.773z"/>
				</g>
				<g>
					<polygon style="fill:#619AC9;" points="725.036,271.919 725.036,256.819 679.52,256.819 679.52,271.919 670.01,271.919 
						670.01,476.744 754.585,476.744 754.585,271.919 					"/>
					<path style="fill:#CBE3F8;" d="M685.056,288.776h-4.962v-4.962h4.962V288.776z M693.548,283.814h-4.962v4.962h4.962V283.814z
						 M702.04,283.814h-4.962v4.962h4.962V283.814z M710.533,283.814h-4.962v4.962h4.962V283.814z M719.025,283.814h-4.962v4.962
						h4.962V283.814z M727.517,283.814h-4.962v4.962h4.962V283.814z M736.01,283.814h-4.962v4.962h4.962V283.814z M744.502,283.814
						h-4.962v4.962h4.962V283.814z M685.056,294.848h-4.962v4.962h4.962V294.848z M693.548,294.848h-4.962v4.962h4.962V294.848z
						 M702.04,294.848h-4.962v4.962h4.962V294.848z M710.533,294.848h-4.962v4.962h4.962V294.848z M719.025,294.848h-4.962v4.962
						h4.962V294.848z M727.517,294.848h-4.962v4.962h4.962V294.848z M736.01,294.848h-4.962v4.962h4.962V294.848z M744.502,294.848
						h-4.962v4.962h4.962V294.848z M685.056,305.883h-4.962v4.962h4.962V305.883z M693.548,305.883h-4.962v4.962h4.962V305.883z
						 M702.04,305.883h-4.962v4.962h4.962V305.883z M710.533,305.883h-4.962v4.962h4.962V305.883z M719.025,305.883h-4.962v4.962
						h4.962V305.883z M727.517,305.883h-4.962v4.962h4.962V305.883z M736.01,305.883h-4.962v4.962h4.962V305.883z M744.502,305.883
						h-4.962v4.962h4.962V305.883z M685.056,316.918h-4.962v4.962h4.962V316.918z M693.548,316.918h-4.962v4.962h4.962V316.918z
						 M702.04,316.918h-4.962v4.962h4.962V316.918z M710.533,316.918h-4.962v4.962h4.962V316.918z M719.025,316.918h-4.962v4.962
						h4.962V316.918z M727.517,316.918h-4.962v4.962h4.962V316.918z M736.01,316.918h-4.962v4.962h4.962V316.918z M744.502,316.918
						h-4.962v4.962h4.962V316.918z M685.056,327.953h-4.962v4.962h4.962V327.953z M693.548,327.953h-4.962v4.962h4.962V327.953z
						 M702.04,327.953h-4.962v4.962h4.962V327.953z M710.533,327.953h-4.962v4.962h4.962V327.953z M719.025,327.953h-4.962v4.962
						h4.962V327.953z M727.517,327.953h-4.962v4.962h4.962V327.953z M736.01,327.953h-4.962v4.962h4.962V327.953z M744.502,327.953
						h-4.962v4.962h4.962V327.953z M685.056,338.988h-4.962v4.962h4.962V338.988z M693.548,338.988h-4.962v4.962h4.962V338.988z
						 M702.04,338.988h-4.962v4.962h4.962V338.988z M710.533,338.988h-4.962v4.962h4.962V338.988z M719.025,338.988h-4.962v4.962
						h4.962V338.988z M727.517,338.988h-4.962v4.962h4.962V338.988z M736.01,338.988h-4.962v4.962h4.962V338.988z M744.502,338.988
						h-4.962v4.962h4.962V338.988z M685.056,350.023h-4.962v4.962h4.962V350.023z M693.548,350.023h-4.962v4.962h4.962V350.023z
						 M702.04,350.023h-4.962v4.962h4.962V350.023z M710.533,350.023h-4.962v4.962h4.962V350.023z M719.025,350.023h-4.962v4.962
						h4.962V350.023z M727.517,350.023h-4.962v4.962h4.962V350.023z M736.01,350.023h-4.962v4.962h4.962V350.023z M744.502,350.023
						h-4.962v4.962h4.962V350.023z M685.056,361.058h-4.962v4.962h4.962V361.058z M693.548,361.058h-4.962v4.962h4.962V361.058z
						 M702.04,361.058h-4.962v4.962h4.962V361.058z M710.533,361.058h-4.962v4.962h4.962V361.058z M719.025,361.058h-4.962v4.962
						h4.962V361.058z M727.517,361.058h-4.962v4.962h4.962V361.058z M736.01,361.058h-4.962v4.962h4.962V361.058z M744.502,361.058
						h-4.962v4.962h4.962V361.058z M685.056,372.093h-4.962v4.962h4.962V372.093z M693.548,372.093h-4.962v4.962h4.962V372.093z
						 M702.04,372.093h-4.962v4.962h4.962V372.093z M710.533,372.093h-4.962v4.962h4.962V372.093z M719.025,372.093h-4.962v4.962
						h4.962V372.093z M727.517,372.093h-4.962v4.962h4.962V372.093z M736.01,372.093h-4.962v4.962h4.962V372.093z M744.502,372.093
						h-4.962v4.962h4.962V372.093z M685.056,383.128h-4.962v4.962h4.962V383.128z M693.548,383.128h-4.962v4.962h4.962V383.128z
						 M702.04,383.128h-4.962v4.962h4.962V383.128z M710.533,383.128h-4.962v4.962h4.962V383.128z M719.025,383.128h-4.962v4.962
						h4.962V383.128z M727.517,383.128h-4.962v4.962h4.962V383.128z M736.01,383.128h-4.962v4.962h4.962V383.128z M744.502,383.128
						h-4.962v4.962h4.962V383.128z M685.056,394.162h-4.962v4.962h4.962V394.162z M693.548,394.162h-4.962v4.962h4.962V394.162z
						 M702.04,394.162h-4.962v4.962h4.962V394.162z M710.533,394.162h-4.962v4.962h4.962V394.162z M719.025,394.162h-4.962v4.962
						h4.962V394.162z M727.517,394.162h-4.962v4.962h4.962V394.162z M736.01,394.162h-4.962v4.962h4.962V394.162z M744.502,394.162
						h-4.962v4.962h4.962V394.162z M685.056,405.197h-4.962v4.962h4.962V405.197z M693.548,405.197h-4.962v4.962h4.962V405.197z
						 M702.04,405.197h-4.962v4.962h4.962V405.197z M710.533,405.197h-4.962v4.962h4.962V405.197z M719.025,405.197h-4.962v4.962
						h4.962V405.197z M727.517,405.197h-4.962v4.962h4.962V405.197z M736.01,405.197h-4.962v4.962h4.962V405.197z M744.502,405.197
						h-4.962v4.962h4.962V405.197z M685.056,416.232h-4.962v4.962h4.962V416.232z M693.548,416.232h-4.962v4.962h4.962V416.232z
						 M702.04,416.232h-4.962v4.962h4.962V416.232z M710.533,416.232h-4.962v4.962h4.962V416.232z M719.025,416.232h-4.962v4.962
						h4.962V416.232z M727.517,416.232h-4.962v4.962h4.962V416.232z M736.01,416.232h-4.962v4.962h4.962V416.232z M744.502,416.232
						h-4.962v4.962h4.962V416.232z M685.056,427.267h-4.962v4.962h4.962V427.267z M693.548,427.267h-4.962v4.962h4.962V427.267z
						 M702.04,427.267h-4.962v4.962h4.962V427.267z M710.533,427.267h-4.962v4.962h4.962V427.267z M719.025,427.267h-4.962v4.962
						h4.962V427.267z M727.517,427.267h-4.962v4.962h4.962V427.267z M736.01,427.267h-4.962v4.962h4.962V427.267z M744.502,427.267
						h-4.962v4.962h4.962V427.267z M685.056,438.302h-4.962v4.962h4.962V438.302z M693.548,438.302h-4.962v4.962h4.962V438.302z
						 M702.04,438.302h-4.962v4.962h4.962V438.302z M710.533,438.302h-4.962v4.962h4.962V438.302z M719.025,438.302h-4.962v4.962
						h4.962V438.302z M727.517,438.302h-4.962v4.962h4.962V438.302z M736.01,438.302h-4.962v4.962h4.962V438.302z M744.502,438.302
						h-4.962v4.962h4.962V438.302z"/>
				</g>
				<g>
					<polygon style="fill:#619AC9;" points="633.853,182.679 633.853,174.424 637.53,174.424 637.53,168.988 633.853,168.988 
						633.853,165.652 629.779,165.652 629.779,154.291 627.815,154.291 627.815,145.684 625.701,145.684 625.701,154.291 
						624.725,154.291 605.896,121.677 605.896,111.609 603.553,111.609 603.553,103.959 599.431,103.959 599.431,111.609 
						597.088,111.609 597.088,121.677 578.258,154.291 577.282,154.291 577.282,145.684 575.168,145.684 575.168,154.291 
						573.204,154.291 573.204,165.652 569.131,165.652 569.131,168.988 565.454,168.988 565.454,174.424 569.131,174.424 
						569.131,182.679 559.92,182.679 559.92,476.744 569.131,476.744 633.853,476.744 643.063,476.744 643.063,182.679 					"/>
					<path style="fill:#CBE3F8;" d="M578.763,203.214h-8v-3.764h8V203.214z M592.128,199.45h-8v3.764h8V199.45z M605.492,199.45h-8
						v3.764h8V199.45z M618.855,199.45h-8v3.764h8V199.45z M632.219,199.45h-8v3.764h8V199.45z M578.763,210.925h-8v3.765h8V210.925
						z M592.128,210.925h-8v3.765h8V210.925z M605.492,210.925h-8v3.765h8V210.925z M618.855,210.925h-8v3.765h8V210.925z
						 M632.219,210.925h-8v3.765h8V210.925z M578.763,222.401h-8v3.765h8V222.401z M592.128,222.401h-8v3.765h8V222.401z
						 M605.492,222.401h-8v3.765h8V222.401z M618.855,222.401h-8v3.765h8V222.401z M632.219,222.401h-8v3.765h8V222.401z
						 M578.763,233.877h-8v3.764h8V233.877z M592.128,233.877h-8v3.764h8V233.877z M605.492,233.877h-8v3.764h8V233.877z
						 M618.855,233.877h-8v3.764h8V233.877z M632.219,233.877h-8v3.764h8V233.877z M578.763,245.353h-8v3.764h8V245.353z
						 M592.128,245.353h-8v3.764h8V245.353z M605.492,245.353h-8v3.764h8V245.353z M618.855,245.353h-8v3.764h8V245.353z
						 M632.219,245.353h-8v3.764h8V245.353z M578.763,256.828h-8v3.764h8V256.828z M592.128,256.828h-8v3.764h8V256.828z
						 M605.492,256.828h-8v3.764h8V256.828z M618.855,256.828h-8v3.764h8V256.828z M632.219,256.828h-8v3.764h8V256.828z
						 M578.763,268.304h-8v3.765h8V268.304z M592.128,268.304h-8v3.765h8V268.304z M605.492,268.304h-8v3.765h8V268.304z
						 M618.855,268.304h-8v3.765h8V268.304z M632.219,268.304h-8v3.765h8V268.304z M578.763,279.78h-8v3.765h8V279.78z
						 M592.128,279.78h-8v3.765h8V279.78z M605.492,279.78h-8v3.765h8V279.78z M618.855,279.78h-8v3.765h8V279.78z M632.219,279.78
						h-8v3.765h8V279.78z M578.763,291.255h-8v3.764h8V291.255z M592.128,291.255h-8v3.764h8V291.255z M605.492,291.255h-8v3.764h8
						V291.255z M618.855,291.255h-8v3.764h8V291.255z M632.219,291.255h-8v3.764h8V291.255z M578.763,302.731h-8v3.764h8V302.731z
						 M592.128,302.731h-8v3.764h8V302.731z M605.492,302.731h-8v3.764h8V302.731z M618.855,302.731h-8v3.764h8V302.731z
						 M632.219,302.731h-8v3.764h8V302.731z M578.763,314.207h-8v3.764h8V314.207z M592.128,314.207h-8v3.764h8V314.207z
						 M605.492,314.207h-8v3.764h8V314.207z M618.855,314.207h-8v3.764h8V314.207z M632.219,314.207h-8v3.764h8V314.207z
						 M578.763,325.683h-8v3.764h8V325.683z M592.128,325.683h-8v3.764h8V325.683z M605.492,325.683h-8v3.764h8V325.683z
						 M618.855,325.683h-8v3.764h8V325.683z M632.219,325.683h-8v3.764h8V325.683z M578.763,337.159h-8v3.764h8V337.159z
						 M592.128,337.159h-8v3.764h8V337.159z M605.492,337.159h-8v3.764h8V337.159z M618.855,337.159h-8v3.764h8V337.159z
						 M632.219,337.159h-8v3.764h8V337.159z M578.763,348.634h-8v3.765h8V348.634z M592.128,348.634h-8v3.765h8V348.634z
						 M605.492,348.634h-8v3.765h8V348.634z M618.855,348.634h-8v3.765h8V348.634z M632.219,348.634h-8v3.765h8V348.634z
						 M578.763,360.11h-8v3.765h8V360.11z M592.128,360.11h-8v3.765h8V360.11z M605.492,360.11h-8v3.765h8V360.11z M618.855,360.11
						h-8v3.765h8V360.11z M632.219,360.11h-8v3.765h8V360.11z M578.763,371.586h-8v3.764h8V371.586z M592.128,371.586h-8v3.764h8
						V371.586z M605.492,371.586h-8v3.764h8V371.586z M618.855,371.586h-8v3.764h8V371.586z M632.219,371.586h-8v3.764h8V371.586z
						 M578.763,383.061h-8v3.764h8V383.061z M592.128,383.061h-8v3.764h8V383.061z M605.492,383.061h-8v3.764h8V383.061z
						 M618.855,383.061h-8v3.764h8V383.061z M632.219,383.061h-8v3.764h8V383.061z"/>
				</g>
				<g>
					<polygon style="fill:#619AC9;" points="354.648,125.352 316.869,125.352 316.869,155.306 311.297,155.306 311.297,176.664 
						316.869,176.664 316.869,476.744 414.985,476.744 414.985,195.187 					"/>
					<path style="fill:#CBE3F8;" d="M347.597,476.39H336.67V194.833h10.927V476.39z M371.412,194.833h-10.927V476.39h10.927V194.833
						z M395.227,194.833h-10.927V476.39h10.927V194.833z"/>
				</g>
			</g>
		</g>
		
			<rect x="-21.982" y="451.998" style="clip-path:url(#SVGID_00000181791114388792367110000000745870074820059566_);fill:#245472;" width="793.963" height="88.704"/>
		<g style="clip-path:url(#SVGID_00000181791114388792367110000000745870074820059566_);">
			<path style="fill:#FFFFFF;" d="M787.317,69.563c-5.892-5.612-14.472-7.775-22.59-7.217c-8.118,0.557-15.872,3.574-23.167,7.181
				c4.823-6.386,5.154-15.817,0.789-22.526c-4.365-6.708-13.12-10.228-20.914-8.406c0.726-13.321-10.249-25.605-23.269-28.515
				s-26.986,2.418-36.603,11.663c-10.171,9.778-15.805,23.929-15.727,38.002c-6.105-2.644-13.505-2.393-19.107,1.192
				c-8.803,5.634-11.027,19.299-4.464,27.434c6.563,8.135,20.389,8.851,27.758,1.439c-4.097,3.442-4.711,9.887-2.411,14.718
				c2.3,4.831,6.923,8.199,11.828,10.336c16.611,7.234,38.006,0.788,47.855-14.419c1.747,7.372,9.159,12.968,16.727,12.629
				c7.568-0.339,14.451-6.576,15.531-14.074c9.332,4.013,19.636,5.742,29.766,4.993c9-0.665,18.822-4.05,22.818-12.141
				C795.743,84.557,793.209,75.175,787.317,69.563z"/>
			<path style="fill:#FFFFFF;" d="M542.632,66.947c-0.286-6.084-6.353-10.166-12.065-12.28c-10.428-3.859-21.984-4.468-32.812-1.979
				c2.648-4.538,3.091-10.578,0.892-15.462c-3.37-7.484-11.481-12.054-19.639-12.958c-8.137-0.901-16.938,1.694-22.185,7.977
				c-5.248,6.284-5.936,16.419-0.486,22.529c-2.591-3.056-4.479-4.211-7.244-5.881c-2.765-1.67-7.165-1.969-10.261-1.047
				c-2.415,0.72-4.308,3.247-4.205,5.617c-0.933-2.099-2.725-3.828-4.773-4.932c-2.646-1.427-5.674-1.961-8.659-2.317
				c-7.257-0.863-15.711-0.293-20.225,5.455c-3.947,5.026-3.242,12.732,0.668,17.787c3.91,5.055,10.377,7.656,16.753,8.094
				c6.376,0.439,12.726-1.052,18.841-2.909c-1.32,3.26,0.494,7.132,3.333,9.208c4.79,3.504,11.465,3.633,17.197,3.856
				c7.125,0.277,14.757,0.143,21.652-1.758c1.306-0.36,2.549-0.963,3.672-1.719c3.057-2.06,5.213-5.829,4.617-9.388
				c1.393,4.828,5.982,8.627,11.019,8.949c5.401,0.346,10.803-3.336,12.457-8.489c3.985,1.903,8.295,3.123,12.686,3.592
				c4.199,0.448,8.618,0.169,12.35-1.806C539.946,75.113,542.831,71.165,542.632,66.947z"/>
			<path style="fill:#FFFFFF;" d="M88.064,87.629c-2.894-6.244-8.695-10.707-14.883-13.718c-11.749-5.716-25.608-6.716-38.171-3.204
				c4.75-7.614,6.067-17.417,3.013-25.892c-3.988-11.069-15.156-19.152-26.917-19.481c-5.958-0.167-11.975,1.536-16.89,4.909
				c-7.161,4.915-11.732,13.404-11.892,22.088c-0.16,8.684,4.094,17.336,11.07,22.512c-8.523-5.579-19.095-7.947-29.184-6.535
				c-5.138,0.719-10.939,3.224-11.969,8.309c-0.684,3.376,1.097,6.87,3.673,9.157c2.575,2.287,5.847,3.602,9.048,4.873
				c-6.388-1.076-13.137-2.121-19.19,0.186c-6.053,2.306-10.839,9.272-8.4,15.273c2.388,5.875,9.732,7.589,16.006,8.507
				c8.294,1.214,16.81,2.421,24.992,0.595c6.571-1.466,12.954-5.341,16.317-11.009c-0.595,3.342,0.239,7.011,2.174,9.856
				c2.867,4.216,7.708,6.77,12.683,7.883c4.975,1.113,10.139,0.938,15.231,0.689c4.675-0.229,9.546-0.573,13.585-2.938
				c4.039-2.365,6.922-7.392,5.31-11.786c-2.443-1.115-4.885-2.229-7.327-3.344c10.326,3.882,21.301,6.029,32.329,6.325
				c5.791,0.155,12.084-0.386,16.421-4.226C90.244,102.096,90.958,93.873,88.064,87.629z"/>
		</g>
	</g>
	<g>
		<rect x="196.616" y="369.68" style="fill:#CBE3F8;" width="79.398" height="2.253"/>
		<rect x="196.616" y="376.308" style="fill:#CBE3F8;" width="79.398" height="2.253"/>
		<rect x="196.616" y="382.936" style="fill:#CBE3F8;" width="79.398" height="2.253"/>
		<rect x="196.616" y="389.564" style="fill:#CBE3F8;" width="79.398" height="2.253"/>
		<rect x="196.616" y="396.192" style="fill:#CBE3F8;" width="79.398" height="2.253"/>
		<rect x="196.616" y="402.821" style="fill:#CBE3F8;" width="79.398" height="2.253"/>
		<rect x="196.616" y="409.449" style="fill:#CBE3F8;" width="79.398" height="2.253"/>
		<rect x="196.616" y="416.077" style="fill:#CBE3F8;" width="79.398" height="2.253"/>
		<rect x="196.616" y="422.705" style="fill:#CBE3F8;" width="79.398" height="2.253"/>
		<rect x="196.616" y="429.333" style="fill:#CBE3F8;" width="79.398" height="2.253"/>
		<rect x="196.616" y="435.962" style="fill:#CBE3F8;" width="79.398" height="2.253"/>
		<rect x="196.616" y="442.59" style="fill:#CBE3F8;" width="79.398" height="2.253"/>
		<rect x="196.616" y="449.218" style="fill:#CBE3F8;" width="79.398" height="2.253"/>
	</g>
	<g>
		<g>
			<g>
				<polygon style="fill:#245472;" points="698.915,326.118 698.342,326.118 697.198,326.118 695.853,326.118 694.709,326.118 
					694.136,326.118 689.424,452.241 694.709,452.241 695.853,452.241 697.198,452.241 698.342,452.241 703.627,452.241 				"/>
				<g>
					<polygon style="fill:#FFFFFF;" points="694.011,278.661 691.02,322.904 696.526,326.118 702.032,322.904 699.257,281.856 					
						"/>
					<polygon style="fill:#FFFFFF;" points="739.426,349.086 702.876,323.977 697.305,327.078 697.267,333.453 734.004,351.973 
											"/>
					<polygon style="fill:#FFFFFF;" points="656.107,353.22 695.817,333.485 695.815,327.109 690.263,323.977 656.219,347.078 					
						"/>
				</g>
				<path style="fill:#245472;" d="M699.79,326.118c0,1.803-1.461,3.264-3.264,3.264c-1.803,0-3.264-1.461-3.264-3.264
					c0-1.803,1.461-3.264,3.264-3.264C698.328,322.854,699.79,324.315,699.79,326.118z"/>
			</g>
			<g>
				<polygon style="fill:#245472;" points="661.109,243.811 660.162,243.811 658.271,243.811 656.048,243.811 654.157,243.811 
					653.211,243.811 645.424,452.241 654.157,452.241 656.048,452.241 658.271,452.241 660.162,452.241 668.896,452.241 				"/>
				<g>
					<polygon style="fill:#FFFFFF;" points="653.003,165.383 648.061,238.499 657.16,243.811 666.259,238.499 661.673,170.663 					
						"/>
					<polygon style="fill:#FFFFFF;" points="728.056,281.767 667.654,240.272 658.448,245.397 658.384,255.932 719.096,286.538 
											"/>
					<polygon style="fill:#FFFFFF;" points="590.363,288.599 655.988,255.985 655.986,245.449 646.809,240.272 590.549,278.449 
											"/>
				</g>
				<path style="fill:#245472;" d="M662.554,243.811c0,2.979-2.415,5.394-5.394,5.394c-2.979,0-5.394-2.415-5.394-5.394
					c0-2.979,2.415-5.394,5.394-5.394C660.139,238.416,662.554,240.831,662.554,243.811z"/>
			</g>
		</g>
		<g>
			<path style="opacity:0.5;fill:#FFFFFF;" d="M184.526,19.841c-3.23-5.303-9.611-8.467-15.776-7.146
				c-2.318,0.497-4.387,1.754-6.008,3.445c-1.514-1.565-3.459-2.754-5.638-3.299c-7.388-1.85-14.159,2.313-19.399,7.113
				c-9.526,8.726-15.934,20.875-18.141,33.574c-0.59,3.395-0.883,6.812-0.897,10.227c-4.712-0.862-9.449,2.028-12.112,5.905
				c-3.322,4.837-4.233,11.361-4.9,17.053c-0.722,6.161-0.633,12.397-0.005,18.562c0.488,4.799,1.293,9.553,2.292,14.268
				c-0.554,0.001-1.117,0.057-1.68,0.188c-4.079,0.942-6.242,5.076-7.379,8.739c-2.028,6.533-1.89,13.594,0.135,20.082
				c-0.951,0.001-1.908,0.118-2.84,0.372c-3.637,0.994-6.291,3.722-7.587,7.208c-2.966,7.977,1.928,15.625,6.548,21.755
				c0.262,0.347,0.579,0.635,0.926,0.861c0.349,0.599,0.929,1.071,1.633,1.32c4.455,1.577,8.916-1.133,11.51-4.659
				c2.799-3.804,2.985-8.733,5.139-12.827c2.118-4.026,5.757-6.917,8.8-10.204c3.146-3.399,5.916-7.37,6.384-12.098
				c0.282-2.845-0.397-5.845-1.975-8.217c6.783-2.736,13.241-6.278,17.745-12.248c4.855-6.435,6.455-15.517,1.693-22.47
				c-0.865-1.263-1.873-2.363-2.988-3.308c5.384-2.004,10.309-5.291,14.265-9.432c2.842-2.975,5.263-6.419,6.977-10.163
				c1.855-4.052,3.626-8.986,2.538-13.473c-0.196-0.808-0.531-1.557-0.955-2.245c3.38-1.338,6.605-3.072,9.545-5.193
				c5.237-3.778,10.047-8.697,12.655-14.685C187.648,32.835,188.04,25.611,184.526,19.841z"/>
			<g>
				<g>
					<polygon style="fill:#FFFFFF;" points="124.532,451.998 70.521,451.998 72.205,411.409 74.075,366.516 76.063,318.536 
						77.933,273.643 79.66,232.076 81.345,191.562 81.617,185.085 113.436,185.085 115.392,232.076 117.12,273.643 118.989,318.536 
						120.978,366.516 122.847,411.409 					"/>
					<polygon style="fill:#EA5C4C;" points="115.392,232.076 79.66,232.076 81.617,185.085 113.436,185.085 					"/>
					<polygon style="fill:#EA5C4C;" points="118.989,318.536 76.063,318.536 77.933,273.643 117.12,273.643 					"/>
					<polygon style="fill:#EA5C4C;" points="122.847,411.409 72.205,411.409 74.075,366.516 120.978,366.516 					"/>
					<polygon style="opacity:0.5;fill:#FFFFFF;" points="81.321,421.327 83.39,371.639 85.591,318.536 87.66,268.848 
						89.572,222.841 91.142,185.085 81.617,185.085 81.345,191.562 79.66,232.076 77.933,273.643 76.063,318.536 74.075,366.516 
						72.205,411.409 70.521,451.998 80.048,451.998 					"/>
					<polygon style="opacity:0.5;fill:#A83027;" points="99.57,451.998 99.57,197.115 81.345,191.562 81.617,185.085 
						113.436,185.085 115.392,232.076 117.12,273.643 118.989,318.536 120.978,366.516 122.847,411.409 124.532,451.998 					"/>
					<g>
						<path style="fill:#EA5C4C;" d="M114.446,191.562H80.549c-0.669,0-1.211-0.542-1.211-1.211v-18.529
							c0-0.669,0.542-1.211,1.211-1.211h33.897c0.669,0,1.211,0.542,1.211,1.211v18.529
							C115.657,191.02,115.115,191.562,114.446,191.562z"/>
						<path style="opacity:0.5;fill:#A83027;" d="M114.446,170.611H97.78c0.669,0,1.211,0.542,1.211,1.211v18.529
							c0,0.669-0.542,1.211-1.211,1.211h16.666c0.669,0,1.211-0.542,1.211-1.211v-18.529
							C115.657,171.153,115.115,170.611,114.446,170.611z"/>
					</g>
				</g>
				<g>
					<g>
						<g>
							<g>
								<path style="fill:#619AC9;" d="M83.475,255.229H72.659V242.71h10.816V255.229z M73.746,254.142h8.643v-10.345h-8.643
									V254.142z"/>
							</g>
							<g>
								<path style="fill:#619AC9;" d="M93.205,255.229H82.388V242.71h10.816V255.229z M83.475,254.142h8.643v-10.345h-8.643
									V254.142z"/>
							</g>
							<g>
								<path style="fill:#619AC9;" d="M102.935,255.229H92.118V242.71h10.816V255.229z M93.205,254.142h8.643v-10.345h-8.643
									V254.142z"/>
							</g>
							<g>
								<path style="fill:#619AC9;" d="M112.664,255.229h-10.816V242.71h10.816V255.229z M102.935,254.142h8.643v-10.345h-8.643
									V254.142z"/>
							</g>
							<g>
								<path style="fill:#619AC9;" d="M122.394,255.229h-10.816V242.71h10.816V255.229z M112.664,254.142h8.643v-10.345h-8.643
									V254.142z"/>
							</g>
						</g>
						<g>
							<rect x="71.213" y="254.685" style="fill:#619AC9;" width="52.628" height="2.96"/>
						</g>
					</g>
					<g>
						<g>
							<g>
								<path style="fill:#619AC9;" d="M83.475,351.591H72.659v-12.519h10.816V351.591z M73.746,350.505h8.643v-10.345h-8.643
									V350.505z"/>
							</g>
							<g>
								<path style="fill:#619AC9;" d="M93.205,351.591H82.388v-12.519h10.816V351.591z M83.475,350.505h8.643v-10.345h-8.643
									V350.505z"/>
							</g>
							<g>
								<path style="fill:#619AC9;" d="M102.935,351.591H92.118v-12.519h10.816V351.591z M93.205,350.505h8.643v-10.345h-8.643
									V350.505z"/>
							</g>
							<g>
								<path style="fill:#619AC9;" d="M112.664,351.591h-10.816v-12.519h10.816V351.591z M102.935,350.505h8.643v-10.345h-8.643
									V350.505z"/>
							</g>
							<g>
								<path style="fill:#619AC9;" d="M122.394,351.591h-10.816v-12.519h10.816V351.591z M112.664,350.505h8.643v-10.345h-8.643
									V350.505z"/>
							</g>
						</g>
						<g>
							<rect x="71.213" y="351.048" style="fill:#619AC9;" width="52.628" height="2.96"/>
						</g>
					</g>
				</g>
			</g>
		</g>
		<g>
			<path style="opacity:0.5;fill:#FFFFFF;" d="M226.771,140.163c4.189-4.387,7.227-10.3,6.906-16.315
				c-0.195-3.652-2.071-7.511-5.943-8.348c-0.861-0.186-1.761-0.221-2.637-0.113c-0.136-0.515-0.314-1.025-0.571-1.524
				c-1.05-2.037-3.192-3.516-5.53-3.439c-4.469,0.146-7.626,4.945-9.87,8.273c-4.672,6.932-7.308,15.186-7.805,23.512
				c-0.1,1.68-0.098,3.367-0.006,5.05c-0.019,0.006-0.038,0.007-0.057,0.012c-3.829,1.173-4.98,6.313-5.979,9.649
				c-2.443,8.159-3.333,16.861-2.588,25.345c0.185,2.1,0.479,4.186,0.848,6.258c-3.061,0.755-5.46,3.59-6.341,6.642
				c-1.213,4.201-0.832,9.11-0.649,13.428c0.108,2.542,0.319,5.077,0.609,7.604c-2.961,0.285-5.441,2.844-6.04,5.704
				c-1.298,6.205,3.364,12.466,8.366,15.581c0.376,0.234,0.748,0.364,1.106,0.413c1.761,1.805,4.821,2.403,7.179,1.554
				c4.2-1.513,5.39-6.174,5.718-10.155c0.155-1.886,0.11-4.002,1.098-5.687c1.029-1.754,2.817-2.951,3.883-4.706
				c1.054-1.738,1.338-3.904,0.809-5.768c3.035-1.871,5.358-4.937,6.023-8.465c0.754-4.003-0.405-7.954-2.915-10.951
				c4.343-3.978,8.134-8.634,8.866-14.706c0.521-4.323-1.135-8.952-4.413-11.719c4.081-3.186,7.49-7.245,9.824-11.869
				c1.694-3.356,3.277-7.231,2.499-11.051C228.843,142.797,227.971,141.291,226.771,140.163z"/>
			<g>
				<g>
					<polygon style="fill:#FFFFFF;" points="217.124,451.998 174.702,451.998 176.025,420.118 177.494,384.858 179.056,347.173 
						180.524,311.913 181.881,279.264 183.204,247.444 183.417,242.357 208.409,242.357 209.946,279.264 211.303,311.913 
						212.771,347.173 214.333,384.858 215.801,420.118 					"/>
					<polygon style="fill:#EA5C4C;" points="209.946,279.264 181.881,279.264 183.417,242.357 208.409,242.357 					"/>
					<polygon style="fill:#EA5C4C;" points="212.771,347.173 179.056,347.173 180.524,311.913 211.303,311.913 					"/>
					<polygon style="fill:#EA5C4C;" points="215.801,420.118 176.025,420.118 177.494,384.858 214.333,384.858 					"/>
					<polygon style="opacity:0.5;fill:#FFFFFF;" points="183.185,427.908 184.81,388.882 186.539,347.173 188.164,308.147 
						189.666,272.011 190.899,242.357 183.417,242.357 183.204,247.444 181.881,279.264 180.524,311.913 179.056,347.173 
						177.494,384.858 176.025,420.118 174.702,451.998 182.186,451.998 					"/>
					<polygon style="opacity:0.5;fill:#A83027;" points="197.518,451.998 197.518,251.806 183.204,247.444 183.417,242.357 
						208.409,242.357 209.946,279.264 211.303,311.913 212.771,347.173 214.333,384.858 215.801,420.118 217.124,451.998 					"/>
					<g>
						<path style="fill:#EA5C4C;" d="M209.202,247.444h-26.623c-0.525,0-0.951-0.426-0.951-0.951V231.94
							c0-0.525,0.426-0.951,0.951-0.951h26.623c0.525,0,0.951,0.426,0.951,0.951v14.553
							C210.154,247.018,209.728,247.444,209.202,247.444z"/>
						<path style="opacity:0.5;fill:#A83027;" d="M209.202,230.988h-13.09c0.525,0,0.951,0.426,0.951,0.951v14.553
							c0,0.525-0.426,0.951-0.951,0.951h13.09c0.525,0,0.951-0.426,0.951-0.951V231.94
							C210.154,231.414,209.728,230.988,209.202,230.988z"/>
					</g>
				</g>
				<g>
					<g>
						<g>
							<g>
								<path style="fill:#619AC9;" d="M184.877,297.449h-8.496v-9.833h8.496V297.449z M177.235,296.596h6.788v-8.125h-6.788
									V296.596z"/>
							</g>
							<g>
								<path style="fill:#619AC9;" d="M192.519,297.449h-8.495v-9.833h8.495V297.449z M184.877,296.596h6.788v-8.125h-6.788
									V296.596z"/>
							</g>
							<g>
								<path style="fill:#619AC9;" d="M200.161,297.449h-8.495v-9.833h8.495V297.449z M192.519,296.596h6.788v-8.125h-6.788
									V296.596z"/>
							</g>
							<g>
								<path style="fill:#619AC9;" d="M207.803,297.449h-8.496v-9.833h8.496V297.449z M200.161,296.596h6.788v-8.125h-6.788
									V296.596z"/>
							</g>
							<g>
								<path style="fill:#619AC9;" d="M215.445,297.449h-8.495v-9.833h8.495V297.449z M207.803,296.596h6.788v-8.125h-6.788
									V296.596z"/>
							</g>
						</g>
						<g>
							<rect x="175.246" y="297.023" style="fill:#619AC9;" width="41.335" height="2.325"/>
						</g>
					</g>
					<g>
						<g>
							<g>
								<path style="fill:#619AC9;" d="M184.877,373.136h-8.496v-9.833h8.496V373.136z M177.235,372.282h6.788v-8.125h-6.788
									V372.282z"/>
							</g>
							<g>
								<path style="fill:#619AC9;" d="M192.519,373.136h-8.495v-9.833h8.495V373.136z M184.877,372.282h6.788v-8.125h-6.788
									V372.282z"/>
							</g>
							<g>
								<path style="fill:#619AC9;" d="M200.161,373.136h-8.495v-9.833h8.495V373.136z M192.519,372.282h6.788v-8.125h-6.788
									V372.282z"/>
							</g>
							<g>
								<path style="fill:#619AC9;" d="M207.803,373.136h-8.496v-9.833h8.496V373.136z M200.161,372.282h6.788v-8.125h-6.788
									V372.282z"/>
							</g>
							<g>
								<path style="fill:#619AC9;" d="M215.445,373.136h-8.495v-9.833h8.495V373.136z M207.803,372.282h6.788v-8.125h-6.788
									V372.282z"/>
							</g>
						</g>
						<g>
							<rect x="175.246" y="372.709" style="fill:#619AC9;" width="41.335" height="2.325"/>
						</g>
					</g>
				</g>
			</g>
		</g>
		<g>
			<path style="opacity:0.5;fill:#FFFFFF;" d="M610.113,160.419c-8.44-6.796-19.25-8.098-29.746-8.286
				c-6.198-0.111-12.894-0.53-18.829,1.59c-0.724,0.259-1.433,0.559-2.124,0.891c1.938-13.654-3.68-28.151-15.495-36.065
				c-7.316-4.9-16.593-7.095-25.33-6.06c-9.004,1.067-17.243,5.403-23.096,12.365c-2.091,2.488-3.875,5.238-5.303,8.157
				c-4.504-5.252-11.612-7.04-18.336-5.142c-7.445,2.101-13.401,7.769-16.333,14.845c-3.5,8.447-2.957,17.89-1.401,26.709
				c1.023,5.799,2.562,11.529,3.662,17.313c-3.112-1.456-6.744-1.641-10.085-0.391c-5.168,1.934-9.147,6.269-10.722,11.553
				c-1.725,5.787-0.606,11.996,1.794,17.409c1.436,3.239,3.403,6.184,5.588,8.973c-3.952,0.899-7.068,3.737-8.474,7.518
				c-1.815,4.886-0.568,10.328,1.423,14.944c1.91,4.426,4.673,8.5,7.859,12.105c2.179,2.465,4.631,4.699,7.277,6.667
				c-0.086,0.421-0.097,0.865-0.007,1.309c0.79,3.854,4.679,6.646,8.577,6.142c2.538-0.328,4.69-1.986,5.846-4.181
				c9.292,3.93,19.474,5.313,29.514,3.895c8.983-1.269,19.022-6.31,19.409-16.549c0.096-2.544-0.533-5.203-1.851-7.403
				c5.944-2.269,10.431-7.879,11.454-14.167c7.714,4.181,16.909,5.319,25.537,3.75c10.205-1.855,21.741-8.553,25.219-18.887
				c1.141-3.39,0.829-7.292-0.816-10.392c8.066-0.42,16.146-1.38,23.631-4.52c8.656-3.63,15.988-10.565,18.867-19.662
				C620.701,175.77,617.456,166.331,610.113,160.419z"/>
			<g>
				<path style="fill:#FFFFFF;" d="M527.115,302.896v-34.625h-93.45v34.625c0,49.181-13.716,120.045-32.969,149.102h37.768h83.851
					h37.768C540.831,422.941,527.115,352.077,527.115,302.896z"/>
				<path style="fill:#EA5C4C;" d="M519.648,256.226h-78.517c-4.124,0-7.466,3.343-7.466,7.466v4.579h93.45v-4.579
					C527.115,259.569,523.772,256.226,519.648,256.226z"/>
				<path style="opacity:0.5;fill:#A83027;" d="M519.648,256.226h-38.556c4.124,0,7.466,3.343,7.466,7.466v4.579h38.556v-4.579
					C527.115,259.569,523.772,256.226,519.648,256.226z"/>
				<path style="opacity:0.5;fill:#FFFFFF;" d="M462.814,256.226h-21.683c-4.124,0-7.466,3.343-7.466,7.466v4.579h21.683v-4.579
					C455.348,259.569,458.691,256.226,462.814,256.226z"/>
				<path style="fill:#EA5C4C;" d="M531.612,358.494c-1.456-9.773-2.58-19.539-3.343-28.988h-95.757
					c-0.763,9.449-1.887,19.215-3.343,28.988H531.612z"/>
				<path style="fill:#EA5C4C;" d="M527.488,317.586c-0.245-5.058-0.373-9.975-0.373-14.69v-17.713h-93.45v17.713
					c0,4.715-0.128,9.632-0.373,14.69H527.488z"/>
				<path style="opacity:0.5;fill:#A83027;" d="M527.115,302.896v-34.625h-38.556v34.625c0,49.181,13.716,120.045,32.969,149.102
					h0.788h37.768C540.831,422.941,527.115,352.077,527.115,302.896z"/>
				<path style="opacity:0.5;fill:#FFFFFF;" d="M455.348,268.271h-21.683v34.625c0,49.181-13.716,120.045-32.969,149.102h21.683
					c19.253-29.057,32.969-99.921,32.969-149.102V268.271z"/>
			</g>
		</g>
		<g>
			<path style="opacity:0.5;fill:#FFFFFF;" d="M406.461,135.491c-2.486-5.028-7.34-8.61-12.78-9.833
				c-0.693-0.156-1.389-0.271-2.086-0.358c1.735-1.492,3.388-3.074,4.886-4.812c4.626-5.365,7.853-12.189,7.745-19.392
				c-0.225-15.018-15.588-23.087-29.142-21.456c-5.004,0.602-9.818,2.299-14.047,4.957c-0.25-1.382-0.736-2.745-1.446-4.023
				c-2.471-4.442-7.357-6.826-12.381-6.471c-11.085,0.783-17.904,10.809-20.24,20.775c-0.047,0.199-0.083,0.4-0.127,0.599
				c-0.036-0.055-0.064-0.115-0.102-0.17c-3.056-4.518-7.785-7.811-13.303-8.267c-5.098-0.421-10.07,2.061-13.56,5.651
				c-3.899,4.011-6.01,9.136-6.632,14.645c-0.301,2.666-0.241,5.335,0.034,7.992c-4.105-2.158-9.069-2.339-13.391-0.656
				c-10.822,4.213-15.128,15.938-13.716,26.835c0.425,3.282,1.289,6.45,2.42,9.528c-0.828-0.243-1.677-0.441-2.568-0.539
				c-4.554-0.502-9.206,1.456-11.907,5.163c-5.637,7.739-0.08,17.799,5.702,23.539c2.967,2.945,6.311,5.604,8.907,8.893
				c-5.151,4.251-7.723,11.401-6.116,17.975c1.518,6.207,6.705,11.036,12.765,12.683c0.216,0.425,0.558,0.814,1.079,1.114
				c14.023,8.088,30.425,11.882,46.578,10.996c8.068-0.443,16.109-1.988,23.71-4.745c7.333-2.66,14.927-6.276,20.054-12.353
				c4.577-5.426,7.021-13.217,4.969-20.047c5.133-0.249,10.164-2.552,13.591-6.44c4.866-5.521,5.685-13.171,2.794-19.839
				c-0.339-0.782-0.74-1.533-1.179-2.258c8.739-0.129,17.253-4.537,20.485-13.256C409.418,146.636,408.945,140.515,406.461,135.491z
				"/>
			<g>
				<polygon style="fill:#EA5C4C;" points="394.842,451.998 236.316,451.998 256.006,302.705 258.421,284.34 259.107,279.173 
					261.533,260.807 264.139,241.004 265.285,232.299 365.884,232.299 367.03,241.004 369.636,260.807 372.062,279.173 
					372.747,284.34 375.162,302.705 				"/>
				<polygon style="fill:#A83027;" points="367.033,240.999 264.135,240.999 265.282,232.299 365.885,232.299 				"/>
				<polygon style="opacity:0.5;fill:#FFFFFF;" points="265.285,232.3 236.319,451.996 259.866,451.996 288.832,232.3 				"/>
				<polygon style="opacity:0.5;fill:#A83027;" points="365.881,232.3 336.238,232.3 318.325,232.3 347.291,451.996 
					394.847,451.996 				"/>
				<g>
					<path style="fill:#EA5C4C;" d="M367.851,219.253H263.315c-1.905,0-3.448,1.544-3.448,3.449v10.695
						c0,1.905,1.544,3.449,3.448,3.449h104.536c1.905,0,3.449-1.544,3.449-3.449v-10.695
						C371.299,220.797,369.755,219.253,367.851,219.253z"/>
					<path style="opacity:0.5;fill:#FFFFFF;" d="M288.832,233.396v-10.695c0-1.905,1.544-3.449,3.449-3.449h-28.966
						c-1.905,0-3.448,1.544-3.448,3.449v10.695c0,1.905,1.544,3.449,3.448,3.449h28.966
						C290.376,236.845,288.832,235.301,288.832,233.396z"/>
					<path style="opacity:0.5;fill:#A83027;" d="M367.851,219.253h-53.007c1.905,0,3.448,1.544,3.448,3.449v10.695
						c0,1.905-1.544,3.449-3.448,3.449h53.007c1.905,0,3.448-1.544,3.448-3.449v-10.695
						C371.299,220.797,369.755,219.253,367.851,219.253z"/>
				</g>
			</g>
		</g>
		<g>
			<g>
				<path style="fill:#245472;" d="M180.89,365.03h-5.616v-48.367c0-6.852-5.575-12.425-12.426-12.425s-12.425,5.574-12.425,12.425
					v34.431h-5.616v-34.431c0-9.948,8.093-18.041,18.041-18.041c9.948,0,18.042,8.093,18.042,18.041V365.03z"/>
			</g>
			<g>
				<path style="fill:#3A739B;" d="M158.914,340.559v111.439h-21.69V340.559c0-3.594,1.741-6.773,4.437-8.739
					c1.786-1.325,3.999-2.1,6.403-2.1c2.999,0,5.706,1.213,7.672,3.179C157.7,334.853,158.914,337.571,158.914,340.559z"/>
				<path style="opacity:0.5;fill:#3A739B;" d="M148.067,329.717c-1.417,0-2.767,0.28-4.007,0.774
					c4.002,1.595,6.834,5.497,6.834,10.067v111.435h8.014V340.558C158.908,334.571,154.054,329.717,148.067,329.717z"/>
				<path style="opacity:0.5;fill:#CBE3F8;" d="M141.66,331.82v120.178h-4.437V340.559
					C137.223,336.965,138.964,333.786,141.66,331.82z"/>
			</g>
			<g>
				<path style="fill:#3A739B;" d="M185.883,363.485v88.513h-17.22v-88.513c0-2.909,1.438-5.47,3.651-7.032
					c1.404-0.988,3.111-1.573,4.965-1.573c2.381,0,4.527,0.966,6.088,2.516C184.917,358.958,185.883,361.115,185.883,363.485z"/>
				<path style="opacity:0.5;fill:#3A739B;" d="M177.276,354.88c-1.128,0-2.202,0.223-3.19,0.617
					c3.175,1.268,5.421,4.366,5.421,7.993v88.503h6.379V363.49C185.886,358.735,182.031,354.88,177.276,354.88z"/>
				<path style="opacity:0.5;fill:#CBE3F8;" d="M172.314,356.453v95.545h-3.651v-88.513
					C168.663,360.576,170.101,358.014,172.314,356.453z"/>
			</g>
		</g>
		<g>
			<g>
				<g>
					<g>
						<path style="fill:#FFB652;" d="M711.889,405.08h-15.31c-0.333,0-0.604-0.27-0.604-0.604v-10.233
							c0-0.333,0.27-0.604,0.604-0.604h15.31c0.333,0,0.604,0.27,0.604,0.604v10.233C712.493,404.81,712.223,405.08,711.889,405.08z
							"/>
						<path style="opacity:0.5;fill:#FFB652;" d="M712.253,393.639h-6.118c0.132,0,0.24,0.681,0.24,1.521v8.4
							c0,0.84-0.107,1.52-0.24,1.52h6.118c0.132,0,0.24-0.681,0.24-1.52v-8.4C712.493,394.32,712.386,393.639,712.253,393.639z"/>
					</g>
					<path style="fill:#CBE3F8;" d="M729.157,440.296v10.651c0,0.583-0.472,1.051-1.051,1.051h-47.541
						c-0.579,0-1.051-0.468-1.051-1.051v-10.651c0-0.182,0.02-0.365,0.056-0.543c0.063-0.317,0.186-0.623,0.361-0.9l10.072-16.151
						c0.309-0.492,0.531-1.023,0.666-1.578c0.111-0.432,0.167-0.88,0.167-1.328v-15.588c0-0.579,0.472-1.051,1.051-1.051h24.899
						c0.579,0,1.051,0.472,1.051,1.051v15.588c0,0.448,0.056,0.896,0.167,1.328c0.135,0.555,0.357,1.087,0.666,1.578l10.072,16.151
						c0.174,0.278,0.297,0.583,0.361,0.9C729.138,439.931,729.157,440.113,729.157,440.296z"/>
					<rect x="690.836" y="409.02" style="fill:#FFB652;" width="27" height="5.488"/>
					<path style="opacity:0.5;fill:#CBE3F8;" d="M729.102,439.752c-0.064-0.317-0.186-0.623-0.361-0.9l-10.072-16.151
						c-0.309-0.492-0.531-1.023-0.666-1.578c-0.111-0.432-0.167-0.88-0.167-1.328v-15.588c0-0.579-0.472-1.051-1.051-1.051h-12.318
						c0.579,0,1.051,0.472,1.051,1.051v15.588c0,0.448,0.055,0.896,0.167,1.328c0.135,0.555,0.357,1.087,0.666,1.578l10.072,16.151
						c0.174,0.278,0.297,0.583,0.361,0.9c0.036,0.178,0.055,0.361,0.055,0.543v10.651c0,0.583-0.472,1.051-1.051,1.051h12.318
						c0.579,0,1.051-0.468,1.051-1.051v-10.651C729.157,440.113,729.138,439.931,729.102,439.752z"/>
					<g>
						<path style="fill:#FFB652;" d="M730.536,451.998h-52.401c-0.282,0-0.511-0.229-0.511-0.511v-2.876
							c0-0.282,0.229-0.511,0.511-0.511h52.401c0.282,0,0.511,0.229,0.511,0.511v2.876
							C731.047,451.769,730.819,451.998,730.536,451.998z"/>
						<path style="opacity:0.5;fill:#FFB652;" d="M730.536,448.1h-17.336c0.282,0,0.511,0.229,0.511,0.511v2.876
							c0,0.282-0.229,0.511-0.511,0.511h17.336c0.282,0,0.511-0.229,0.511-0.511v-2.876
							C731.047,448.329,730.819,448.1,730.536,448.1z"/>
					</g>
				</g>
				<g>
					<path style="fill:#3A739B;" d="M708.66,393.639h-8.851v-12.498c0-3.532-2.873-6.405-6.406-6.405h-28.509v-8.851h28.509
						c8.412,0,15.257,6.844,15.257,15.256V393.639z"/>
				</g>
			</g>
			<g>
				<path style="fill:#CBE3F8;" d="M670.443,451.998h-33.063V313.355c0-9.13,7.402-16.532,16.532-16.532h0
					c9.13,0,16.532,7.401,16.532,16.532V451.998z"/>
				<rect x="637.379" y="324.447" style="fill:#FFB652;" width="33.063" height="43.58"/>
				<path style="opacity:0.5;fill:#CBE3F8;" d="M653.911,296.823c-1.892,0-3.703,0.333-5.396,0.919
					c6.477,2.239,11.136,8.375,11.136,15.613v138.643h10.792V313.355C670.443,304.225,663.041,296.823,653.911,296.823z"/>
				<path style="fill:#FFB652;" d="M673.885,429.224h-39.948c-1.025,0-1.857,0.831-1.857,1.857v19.061
					c0,1.025,0.831,1.857,1.857,1.857h39.948c1.025,0,1.857-0.831,1.857-1.857v-19.061
					C675.742,430.055,674.911,429.224,673.885,429.224z"/>
				<path style="opacity:0.5;fill:#FFB652;" d="M673.885,429.224h-19.838c1.025,0,1.857,0.831,1.857,1.857v19.061
					c0,1.025-0.831,1.857-1.857,1.857h19.838c1.025,0,1.857-0.831,1.857-1.857v-19.061
					C675.742,430.055,674.911,429.224,673.885,429.224z"/>
			</g>
			<g>
				<path style="fill:#CBE3F8;" d="M623.809,451.998h-33.063V313.355c0-9.13,7.401-16.532,16.532-16.532l0,0
					c9.13,0,16.532,7.401,16.532,16.532V451.998z"/>
				<rect x="590.746" y="324.447" style="fill:#FFB652;" width="33.063" height="43.58"/>
				<path style="opacity:0.5;fill:#CBE3F8;" d="M607.278,296.823c-1.892,0-3.703,0.333-5.396,0.919
					c6.477,2.239,11.136,8.375,11.136,15.613v138.643h10.792V313.355C623.809,304.225,616.408,296.823,607.278,296.823z"/>
				<path style="fill:#FFB652;" d="M627.252,429.224h-39.948c-1.025,0-1.857,0.831-1.857,1.857v19.061
					c0,1.025,0.831,1.857,1.857,1.857h39.948c1.025,0,1.857-0.831,1.857-1.857v-19.061
					C629.108,430.055,628.277,429.224,627.252,429.224z"/>
				<path style="opacity:0.5;fill:#FFB652;" d="M627.252,429.224h-19.838c1.025,0,1.857,0.831,1.857,1.857v19.061
					c0,1.025-0.831,1.857-1.857,1.857h19.838c1.025,0,1.857-0.831,1.857-1.857v-19.061
					C629.108,430.055,628.277,429.224,627.252,429.224z"/>
			</g>
			<g>
				<path style="fill:#CBE3F8;" d="M577.176,451.998h-33.063V313.355c0-9.13,7.401-16.532,16.532-16.532l0,0
					c9.13,0,16.532,7.401,16.532,16.532V451.998z"/>
				<rect x="544.112" y="324.447" style="fill:#FFB652;" width="33.063" height="43.58"/>
				<path style="opacity:0.5;fill:#CBE3F8;" d="M560.644,296.823c-1.892,0-3.703,0.333-5.396,0.919
					c6.477,2.239,11.136,8.375,11.136,15.613v138.643h10.792V313.355C577.176,304.225,569.774,296.823,560.644,296.823z"/>
				<path style="fill:#FFB652;" d="M579.17,429.224h-39.948c-1.026,0-1.857,0.831-1.857,1.857v19.061
					c0,1.025,0.831,1.857,1.857,1.857h39.948c1.025,0,1.857-0.831,1.857-1.857v-19.061
					C581.027,430.055,580.196,429.224,579.17,429.224z"/>
				<path style="opacity:0.5;fill:#FFB652;" d="M579.17,429.224h-19.838c1.026,0,1.857,0.831,1.857,1.857v19.061
					c0,1.025-0.831,1.857-1.857,1.857h19.838c1.025,0,1.857-0.831,1.857-1.857v-19.061
					C581.027,430.055,580.196,429.224,579.17,429.224z"/>
			</g>
		</g>
		<g>
			<g>
				<g>
					<polygon style="fill:#8BB7E4;" points="391.686,364.212 315.869,344.086 240.053,364.212 240.053,451.998 391.686,451.998 
											"/>
					<rect x="258.909" y="434.314" style="fill:#A83027;" width="132.777" height="17.684"/>
				</g>
				<polygon style="fill:#245472;" points="183.093,343.87 315.869,343.87 391.686,363.996 258.909,363.996 				"/>
				<g>
					<g>
						<path style="fill:#CBE3F8;" d="M292.053,396.307H276.58c-1.751,0-3.17-1.419-3.17-3.17v-9.166c0-1.751,1.419-3.17,3.17-3.17
							h15.473c1.751,0,3.17,1.419,3.17,3.17v9.166C295.223,394.888,293.804,396.307,292.053,396.307z"/>
						<path style="fill:#CBE3F8;" d="M320.207,396.307h-15.473c-1.751,0-3.17-1.419-3.17-3.17v-9.166c0-1.751,1.419-3.17,3.17-3.17
							h15.473c1.751,0,3.17,1.419,3.17,3.17v9.166C323.377,394.888,321.958,396.307,320.207,396.307z"/>
						<path style="fill:#CBE3F8;" d="M348.361,396.307h-15.473c-1.751,0-3.17-1.419-3.17-3.17v-9.166c0-1.751,1.419-3.17,3.17-3.17
							h15.473c1.751,0,3.17,1.419,3.17,3.17v9.166C351.531,394.888,350.112,396.307,348.361,396.307z"/>
						<path style="fill:#CBE3F8;" d="M376.515,396.307h-15.473c-1.751,0-3.17-1.419-3.17-3.17v-9.166c0-1.751,1.419-3.17,3.17-3.17
							h15.473c1.751,0,3.17,1.419,3.17,3.17v9.166C379.685,394.888,378.266,396.307,376.515,396.307z"/>
					</g>
					<g>
						<path style="fill:#CBE3F8;" d="M292.053,417.387H276.58c-1.751,0-3.17-1.419-3.17-3.17v-9.166c0-1.751,1.419-3.17,3.17-3.17
							h15.473c1.751,0,3.17,1.419,3.17,3.17v9.166C295.223,415.967,293.804,417.387,292.053,417.387z"/>
						<path style="fill:#CBE3F8;" d="M320.207,417.387h-15.473c-1.751,0-3.17-1.419-3.17-3.17v-9.166c0-1.751,1.419-3.17,3.17-3.17
							h15.473c1.751,0,3.17,1.419,3.17,3.17v9.166C323.377,415.967,321.958,417.387,320.207,417.387z"/>
						<path style="fill:#CBE3F8;" d="M348.361,417.387h-15.473c-1.751,0-3.17-1.419-3.17-3.17v-9.166c0-1.751,1.419-3.17,3.17-3.17
							h15.473c1.751,0,3.17,1.419,3.17,3.17v9.166C351.531,415.967,350.112,417.387,348.361,417.387z"/>
						<path style="fill:#CBE3F8;" d="M376.515,417.387h-15.473c-1.751,0-3.17-1.419-3.17-3.17v-9.166c0-1.751,1.419-3.17,3.17-3.17
							h15.473c1.751,0,3.17,1.419,3.17,3.17v9.166C379.685,415.967,378.266,417.387,376.515,417.387z"/>
					</g>
				</g>
			</g>
			<g>
				<g>
					<polygon style="fill:#CBE3F8;" points="258.909,364.212 183.093,344.086 107.276,364.212 107.276,451.998 258.909,451.998 
											"/>
					<rect x="107.276" y="434.314" style="fill:#EA5C4C;" width="151.633" height="17.684"/>
				</g>
				<g>
					<rect x="142.798" y="397.826" style="fill:#8BB7E4;" width="80.588" height="53.956"/>
					<path style="fill:#619AC9;" d="M223.387,403.017h-80.588v-2.522h80.588V403.017z M223.387,405.938h-80.588v2.522h80.588
						V405.938z M223.387,411.38h-80.588v2.522h80.588V411.38z M223.387,416.822h-80.588v2.522h80.588V416.822z M223.387,422.265
						h-80.588v2.522h80.588V422.265z M223.387,427.707h-80.588v2.522h80.588V427.707z M223.387,433.149h-80.588v2.522h80.588
						V433.149z M223.387,438.591h-80.588v2.522h80.588V438.591z M223.387,444.034h-80.588v2.522h80.588V444.034z M223.387,449.476
						h-80.588v2.522h80.588V449.476z"/>
				</g>
			</g>
		</g>
		<g>
			<g>
				<path style="fill:#245472;" d="M203.77,451.998h-81.258c-0.922,0-1.67-0.748-1.67-1.67v-62.245c0-0.922,0.748-1.67,1.67-1.67
					h81.258c0.922,0,1.67,0.748,1.67,1.67v62.245C205.44,451.25,204.692,451.998,203.77,451.998z"/>
				<path style="fill:#245472;" d="M206.893,389.701h-86.672c-0.444,0-0.804-0.36-0.804-0.804v-4.069
					c0-0.444,0.36-0.804,0.804-0.804h86.672c0.444,0,0.804,0.36,0.804,0.804v4.069C207.697,389.341,207.337,389.701,206.893,389.701
					z"/>
			</g>
			<g>
				<path style="fill:#3A739B;" d="M120.723,451.998H39.464c-0.922,0-1.67-0.748-1.67-1.67v-62.245c0-0.922,0.748-1.67,1.67-1.67
					h81.258c0.922,0,1.67,0.748,1.67,1.67v62.245C122.392,451.25,121.645,451.998,120.723,451.998z"/>
				<g>
					<path style="fill:#619AC9;" d="M123.429,389.701H36.757c-0.444,0-0.804-0.36-0.804-0.804v-4.069
						c0-0.444,0.36-0.804,0.804-0.804h86.672c0.444,0,0.804,0.36,0.804,0.804v4.069
						C124.234,389.341,123.873,389.701,123.429,389.701z"/>
					<path style="opacity:0.5;fill:#3A739B;" d="M123.429,384.024H98.608c0.444,0,0.804,0.36,0.804,0.804v4.069
						c0,0.444-0.36,0.804-0.804,0.804h24.821c0.444,0,0.804-0.36,0.804-0.804v-4.069
						C124.234,384.384,123.873,384.024,123.429,384.024z"/>
				</g>
				<g>
					<path style="fill:#CBE3F8;" d="M65.805,445.707H44.738c-0.671,0-1.215-0.544-1.215-1.215v-26.494
						c0-0.671,0.544-1.215,1.215-1.215h21.067c0.671,0,1.215,0.544,1.215,1.215v26.494C67.02,445.163,66.476,445.707,65.805,445.707
						z M91.944,444.492v-26.494c0-0.671-0.544-1.215-1.215-1.215H69.662c-0.671,0-1.215,0.544-1.215,1.215v26.494
						c0,0.671,0.544,1.215,1.215,1.215H90.73C91.4,445.707,91.944,445.163,91.944,444.492z M116.868,444.492v-26.494
						c0-0.671-0.544-1.215-1.215-1.215H94.587c-0.671,0-1.215,0.544-1.215,1.215v26.494c0,0.671,0.544,1.215,1.215,1.215h21.067
						C116.325,445.707,116.868,445.163,116.868,444.492z M116.868,402.774v-6.42c0-0.421-0.341-0.762-0.762-0.762H44.286
						c-0.421,0-0.762,0.341-0.762,0.762v6.42c0,0.421,0.341,0.762,0.762,0.762h71.821
						C116.527,403.536,116.868,403.195,116.868,402.774z M116.868,413.09v-6.42c0-0.421-0.341-0.762-0.762-0.762H44.286
						c-0.421,0-0.762,0.341-0.762,0.762v6.42c0,0.421,0.341,0.762,0.762,0.762h71.821
						C116.527,413.852,116.868,413.511,116.868,413.09z"/>
					<path style="fill:#E1F1FF;" d="M49.58,395.593h40.801l-4.586,7.944H44.994L49.58,395.593z M68.448,417.998v15.584l9.699-16.799
						h-8.484C68.992,416.783,68.448,417.327,68.448,417.998z M67.02,417.998c0-0.671-0.544-1.215-1.215-1.215H44.738
						c-0.671,0-1.215,0.544-1.215,1.215v26.494c0,0.671,0.544,1.215,1.215,1.215h16.709l5.573-9.653V417.998z M44.286,405.909
						c-0.421,0-0.762,0.341-0.762,0.762v6.42c0,0.421,0.341,0.762,0.762,0.762h35.553l4.586-7.944H44.286z M67.02,444.492v-2.976
						l-2.419,4.19h1.204C66.476,445.707,67.02,445.163,67.02,444.492z M91.944,417.998c0-0.671-0.544-1.215-1.215-1.215H81.3
						l-12.852,22.261v5.448c0,0.671,0.544,1.215,1.215,1.215h6.991l15.291-26.484V417.998z M88.948,403.536h12.053l4.586-7.944
						H93.535L88.948,403.536z M87.579,405.909l-4.586,7.944h12.053l4.586-7.944H87.579z"/>
				</g>
			</g>
		</g>
	</g>
	<g>
		<g>
			<path style="fill:#8BB7E4;" d="M520.748,440.789c0-6.061-4.814-10.986-10.826-11.19v-0.019h-40.517v22.419h40.517v-0.019
				C515.933,451.775,520.748,446.85,520.748,440.789z"/>
			<path style="opacity:0.5;fill:#8BB7E4;" d="M509.921,442.395v0.019h-40.517v9.584h40.517v-0.019
				c6.012-0.204,10.826-5.129,10.826-11.19c0-1.718-0.398-3.338-1.089-4.792C517.911,439.672,514.229,442.249,509.921,442.395z"/>
			
				<ellipse transform="matrix(0.2309 -0.973 0.973 0.2309 -68.0681 795.4691)" style="fill:#E1F1FF;" cx="469.114" cy="440.789" rx="11.209" ry="11.209"/>
		</g>
		<g>
			<g>
				<path style="fill:#8BB7E4;" d="M531.957,418.37c0-6.061-4.815-10.986-10.826-11.19v-0.019h-40.517v22.419h40.517v-0.019
					C527.143,429.357,531.957,424.432,531.957,418.37z"/>
				<path style="opacity:0.5;fill:#8BB7E4;" d="M521.131,419.976v0.019h-40.517v9.584h40.517v-0.019
					c6.012-0.204,10.826-5.129,10.826-11.19c0-1.718-0.398-3.338-1.089-4.792C529.121,417.254,525.439,419.83,521.131,419.976z"/>
				
					<ellipse transform="matrix(0.925 -0.3801 0.3801 0.925 -122.9678 213.959)" style="fill:#E1F1FF;" cx="480.323" cy="418.37" rx="11.209" ry="11.209"/>
			</g>
			<path style="fill:#CBE3F8;" d="M511.086,415.105h-14.323c-1.33,0-2.408-1.078-2.408-2.408l0,0c0-1.33,1.078-2.408,2.408-2.408
				h14.323c1.33,0,2.408,1.078,2.408,2.408l0,0C513.494,414.027,512.416,415.105,511.086,415.105z"/>
		</g>
		<g>
			<g>
				<path style="fill:#8BB7E4;" d="M545.699,440.789c0-6.061-4.815-10.986-10.827-11.19v-0.019h-40.517v22.419h40.517v-0.019
					C540.884,451.775,545.699,446.85,545.699,440.789z"/>
				<path style="opacity:0.5;fill:#8BB7E4;" d="M534.872,442.395v0.019h-40.517v9.584h40.517v-0.019
					c6.012-0.204,10.826-5.129,10.826-11.19c0-1.718-0.398-3.338-1.089-4.792C542.862,439.672,539.18,442.249,534.872,442.395z"/>
				
					<ellipse transform="matrix(0.925 -0.3801 0.3801 0.925 -130.4575 220.8643)" style="fill:#E1F1FF;" cx="494.064" cy="440.789" rx="11.209" ry="11.209"/>
			</g>
			<path style="fill:#CBE3F8;" d="M522.701,435.997h-14.323c-1.33,0-2.408-1.078-2.408-2.408l0,0c0-1.33,1.078-2.408,2.408-2.408
				h14.323c1.33,0,2.408,1.078,2.408,2.408l0,0C525.109,434.918,524.031,435.997,522.701,435.997z"/>
		</g>
	</g>
	<g>
		<g>
			<path style="fill:#3A739B;" d="M595.686,392.701c-1.895-2.823-5.911-3.54-9.173-2.578c-3.261,0.962-5.948,3.234-8.529,5.448
				c3.135-3.576,5.17-8.104,5.763-12.822c0.24-1.913,0.238-3.914-0.491-5.698c-0.729-1.785-2.305-3.315-4.217-3.557
				c-1.414-0.18-2.927,0.522-3.698,1.675c1.815-5.221,1.235-11.247-1.659-15.966c-1.513-2.467-4.161-4.759-6.992-4.157
				c-2.401,0.511-3.909,2.897-4.75,5.202c-1.954,5.357-1.745,11.469,0.571,16.68c-1.766-3.128-4.891-5.457-8.393-6.254
				c-2.448-0.557-5.364-0.228-6.919,1.743c-1.353,1.715-1.288,4.132-0.96,6.292c0.892,5.858,3.32,11.453,6.895,16.175
				c-2.69-0.433-5.462,0.043-7.526,1.777c-2.036,1.711-3.098,4.419-3.106,7.079c-0.008,2.66,0.962,5.261,2.423,7.484
				c2.913,4.43,7.729,7.409,12.862,8.737c5.133,1.328,10.569,1.112,15.774,0.105c5.818-1.126,11.561-3.298,16.048-7.169
				c4.487-3.871,7.583-9.608,7.369-15.53C596.921,395.732,596.597,394.058,595.686,392.701z"/>
			<polygon style="fill:#245472;" points="569.299,380.188 567.294,380.218 562.932,456.277 575.978,456.078 			"/>
		</g>
		<g>
			<path style="fill:#3A739B;" d="M82.451,385.944c-3.512-1.386-7.578-0.652-10.932,1.082c-3.354,1.734-6.136,4.376-8.869,6.982
				c3.283-7.678,6.567-15.357,9.85-23.035c0.866-2.025,1.745-4.105,1.846-6.305c0.101-2.2-0.738-4.582-2.625-5.719
				c-2.063-1.243-4.829-0.664-6.772,0.759c-1.943,1.423-3.245,3.534-4.498,5.591c2.448-7.419,3.201-15.392,2.187-23.139
				c-0.613-4.685-2.235-9.784-6.371-12.069c-4.93-2.725-11.532,0.046-14.578,4.784c-3.046,4.738-3.26,10.766-2.545,16.353
				c0.714,5.588,2.254,11.085,2.365,16.717c-0.826-2.098-2.246-4.024-4.219-5.117c-1.973-1.093-4.531-1.239-6.456-0.065
				c-3.526,2.149-3.512,7.239-2.643,11.276c1.696,7.875,5.03,15.392,9.728,21.936c-4.713-5.664-14.289-5.957-19.767-1.029
				c-5.477,4.928-6.412,13.908-2.617,20.224c5.852,9.737,18.385,13.071,28.804,14.861c15.339,2.635,31.044-4.178,39.856-17.165
				c2.91-4.288,5.38-9.117,5.553-14.296C89.919,393.391,87.271,387.846,82.451,385.944z"/>
			<polygon style="fill:#245472;" points="52.809,354.036 50.197,354.076 44.511,453.201 61.514,452.942 			"/>
		</g>
		<path style="fill:#245472;" d="M699.217,441.208c-1.714-0.845-3.642-1.427-5.528-1.117c-1.127,0.186-2.216,0.762-2.983,1.593
			c0.874-2.011,1.37-4.187,1.443-6.379c0.047-1.428-0.112-2.945-0.966-4.09c-1.325-1.778-4.064-2.077-6.016-1.025
			c-1.794,0.967-2.951,2.824-3.507,4.797c-0.002-0.017-0.003-0.034-0.005-0.052c-0.302-2.391-1.309-4.789-3.208-6.273
			c-1.899-1.484-4.784-1.818-6.717-0.38c-1.485,1.105-2.172,2.99-2.485,4.815c-0.729,4.247,0.199,8.757,2.548,12.371
			c-1.644-1.767-4.021-2.829-6.433-2.874c-1.153-0.022-2.335,0.19-3.321,0.786c-0.986,0.597-1.753,1.614-1.875,2.76
			c-0.471,4.434,5.054,5.367,8.312,5.784c5.73,0.733,11.543,0.723,17.306,0.525c4.474-0.154,17.146,0.867,17.479-6.094
			C703.37,444.046,701.291,442.232,699.217,441.208z"/>
		<path style="fill:#245472;" d="M334.703,441.695c-1.64-0.809-3.486-1.366-5.291-1.069c-1.079,0.178-2.121,0.729-2.855,1.525
			c0.837-1.925,1.311-4.008,1.381-6.105c0.045-1.367-0.107-2.819-0.924-3.915c-1.269-1.702-3.89-1.988-5.758-0.981
			c-1.717,0.925-2.825,2.703-3.357,4.591c-0.002-0.016-0.003-0.033-0.005-0.049c-0.289-2.288-1.253-4.584-3.071-6.004
			s-4.579-1.741-6.429-0.363c-1.422,1.058-2.079,2.862-2.379,4.609c-0.698,4.065,0.191,8.382,2.439,11.841
			c-1.573-1.691-3.849-2.708-6.158-2.751c-1.103-0.021-2.234,0.182-3.179,0.753c-0.944,0.571-1.678,1.545-1.794,2.642
			c-0.451,4.244,4.837,5.137,7.955,5.536c5.485,0.702,11.048,0.692,16.565,0.502c4.282-0.148,16.411,0.829,16.73-5.833
			C338.678,444.411,336.689,442.675,334.703,441.695z"/>
	</g>
</g>
</svg>
